# This file uses centimeters as units for non-parametric coordinates.

mtllib invertSphere.mtl
v 0.353554 -0.923880 -0.146446
v 0.270598 -0.923880 -0.270598
v 0.146447 -0.923880 -0.353553
v 0.000000 -0.923880 -0.382683
v -0.146446 -0.923880 -0.353553
v -0.270598 -0.923880 -0.270598
v -0.353553 -0.923880 -0.146447
v -0.382683 -0.923880 -0.000000
v -0.353553 -0.923880 0.146446
v -0.270598 -0.923880 0.270598
v -0.146447 -0.923880 0.353553
v -0.000000 -0.923880 0.382683
v 0.146447 -0.923880 0.353553
v 0.270598 -0.923880 0.270598
v 0.353553 -0.923880 0.146447
v 0.382683 -0.923880 0.000000
v 0.653282 -0.707107 -0.270598
v 0.500000 -0.707107 -0.500000
v 0.270598 -0.707107 -0.653281
v 0.000000 -0.707107 -0.707107
v -0.270598 -0.707107 -0.653282
v -0.500000 -0.707107 -0.500000
v -0.653281 -0.707107 -0.270598
v -0.707107 -0.707107 -0.000000
v -0.653282 -0.707107 0.270598
v -0.500000 -0.707107 0.500000
v -0.270598 -0.707107 0.653281
v -0.000000 -0.707107 0.707107
v 0.270598 -0.707107 0.653282
v 0.500000 -0.707107 0.500000
v 0.653281 -0.707107 0.270598
v 0.707107 -0.707107 0.000000
v 0.853554 -0.382683 -0.353553
v 0.653282 -0.382683 -0.653281
v 0.353554 -0.382683 -0.853553
v 0.000000 -0.382683 -0.923879
v -0.353553 -0.382683 -0.853553
v -0.653281 -0.382683 -0.653282
v -0.853553 -0.382683 -0.353554
v -0.923880 -0.382683 -0.000000
v -0.853553 -0.382683 0.353553
v -0.653282 -0.382683 0.653281
v -0.353554 -0.382683 0.853553
v -0.000000 -0.382683 0.923880
v 0.353553 -0.382683 0.853553
v 0.653281 -0.382683 0.653282
v 0.853553 -0.382683 0.353553
v 0.923880 -0.382683 0.000000
v 0.923880 0.000000 -0.382683
v 0.707107 0.000000 -0.707106
v 0.382684 0.000000 -0.923879
v 0.000001 0.000000 -1.000000
v -0.382683 0.000000 -0.923880
v -0.707106 0.000000 -0.707107
v -0.923879 0.000000 -0.382684
v -1.000000 0.000000 -0.000000
v -0.923880 0.000000 0.382683
v -0.707107 0.000000 0.707107
v -0.382684 0.000000 0.923879
v -0.000000 0.000000 1.000000
v 0.382683 0.000000 0.923880
v 0.707107 0.000000 0.707107
v 0.923880 0.000000 0.382683
v 1.000000 0.000000 0.000000
v 0.853554 0.382683 -0.353553
v 0.653282 0.382683 -0.653281
v 0.353554 0.382683 -0.853553
v 0.000000 0.382683 -0.923879
v -0.353553 0.382683 -0.853553
v -0.653281 0.382683 -0.653282
v -0.853553 0.382683 -0.353554
v -0.923880 0.382683 -0.000000
v -0.853553 0.382683 0.353553
v -0.653282 0.382683 0.653281
v -0.353554 0.382683 0.853553
v -0.000000 0.382683 0.923880
v 0.353553 0.382683 0.853553
v 0.653281 0.382683 0.653282
v 0.853553 0.382683 0.353553
v 0.923880 0.382683 0.000000
v 0.653282 0.707107 -0.270598
v 0.500000 0.707107 -0.500000
v 0.270598 0.707107 -0.653281
v 0.000000 0.707107 -0.707107
v -0.270598 0.707107 -0.653282
v -0.500000 0.707107 -0.500000
v -0.653281 0.707107 -0.270598
v -0.707107 0.707107 -0.000000
v -0.653282 0.707107 0.270598
v -0.500000 0.707107 0.500000
v -0.270598 0.707107 0.653281
v -0.000000 0.707107 0.707107
v 0.270598 0.707107 0.653282
v 0.500000 0.707107 0.500000
v 0.653281 0.707107 0.270598
v 0.707107 0.707107 0.000000
v 0.353554 0.923880 -0.146446
v 0.270598 0.923880 -0.270598
v 0.146447 0.923880 -0.353553
v 0.000000 0.923880 -0.382683
v -0.146446 0.923880 -0.353553
v -0.270598 0.923880 -0.270598
v -0.353553 0.923880 -0.146447
v -0.382683 0.923880 -0.000000
v -0.353553 0.923880 0.146446
v -0.270598 0.923880 0.270598
v -0.146447 0.923880 0.353553
v -0.000000 0.923880 0.382683
v 0.146447 0.923880 0.353553
v 0.270598 0.923880 0.270598
v 0.353553 0.923880 0.146447
v 0.382683 0.923880 0.000000
v 0.000000 -1.000000 0.000000
v 0.000000 1.000000 0.000000
vt 0.000000 0.125000
vt 0.062500 0.125000
vt 0.125000 0.125000
vt 0.187500 0.125000
vt 0.250000 0.125000
vt 0.312500 0.125000
vt 0.375000 0.125000
vt 0.437500 0.125000
vt 0.500000 0.125000
vt 0.562500 0.125000
vt 0.625000 0.125000
vt 0.687500 0.125000
vt 0.750000 0.125000
vt 0.812500 0.125000
vt 0.875000 0.125000
vt 0.937500 0.125000
vt 1.000000 0.125000
vt 0.000000 0.250000
vt 0.062500 0.250000
vt 0.125000 0.250000
vt 0.187500 0.250000
vt 0.250000 0.250000
vt 0.312500 0.250000
vt 0.375000 0.250000
vt 0.437500 0.250000
vt 0.500000 0.250000
vt 0.562500 0.250000
vt 0.625000 0.250000
vt 0.687500 0.250000
vt 0.750000 0.250000
vt 0.812500 0.250000
vt 0.875000 0.250000
vt 0.937500 0.250000
vt 1.000000 0.250000
vt 0.000000 0.375000
vt 0.062500 0.375000
vt 0.125000 0.375000
vt 0.187500 0.375000
vt 0.250000 0.375000
vt 0.312500 0.375000
vt 0.375000 0.375000
vt 0.437500 0.375000
vt 0.500000 0.375000
vt 0.562500 0.375000
vt 0.625000 0.375000
vt 0.687500 0.375000
vt 0.750000 0.375000
vt 0.812500 0.375000
vt 0.875000 0.375000
vt 0.937500 0.375000
vt 1.000000 0.375000
vt 0.000000 0.500000
vt 0.062500 0.500000
vt 0.125000 0.500000
vt 0.187500 0.500000
vt 0.250000 0.500000
vt 0.312500 0.500000
vt 0.375000 0.500000
vt 0.437500 0.500000
vt 0.500000 0.500000
vt 0.562500 0.500000
vt 0.625000 0.500000
vt 0.687500 0.500000
vt 0.750000 0.500000
vt 0.812500 0.500000
vt 0.875000 0.500000
vt 0.937500 0.500000
vt 1.000000 0.500000
vt 0.000000 0.625000
vt 0.062500 0.625000
vt 0.125000 0.625000
vt 0.187500 0.625000
vt 0.250000 0.625000
vt 0.312500 0.625000
vt 0.375000 0.625000
vt 0.437500 0.625000
vt 0.500000 0.625000
vt 0.562500 0.625000
vt 0.625000 0.625000
vt 0.687500 0.625000
vt 0.750000 0.625000
vt 0.812500 0.625000
vt 0.875000 0.625000
vt 0.937500 0.625000
vt 1.000000 0.625000
vt 0.000000 0.750000
vt 0.062500 0.750000
vt 0.125000 0.750000
vt 0.187500 0.750000
vt 0.250000 0.750000
vt 0.312500 0.750000
vt 0.375000 0.750000
vt 0.437500 0.750000
vt 0.500000 0.750000
vt 0.562500 0.750000
vt 0.625000 0.750000
vt 0.687500 0.750000
vt 0.750000 0.750000
vt 0.812500 0.750000
vt 0.875000 0.750000
vt 0.937500 0.750000
vt 1.000000 0.750000
vt 0.000000 0.875000
vt 0.062500 0.875000
vt 0.125000 0.875000
vt 0.187500 0.875000
vt 0.250000 0.875000
vt 0.312500 0.875000
vt 0.375000 0.875000
vt 0.437500 0.875000
vt 0.500000 0.875000
vt 0.562500 0.875000
vt 0.625000 0.875000
vt 0.687500 0.875000
vt 0.750000 0.875000
vt 0.812500 0.875000
vt 0.875000 0.875000
vt 0.937500 0.875000
vt 1.000000 0.875000
vt 0.031250 0.000000
vt 0.093750 0.000000
vt 0.156250 0.000000
vt 0.218750 0.000000
vt 0.281250 0.000000
vt 0.343750 0.000000
vt 0.406250 0.000000
vt 0.468750 0.000000
vt 0.531250 0.000000
vt 0.593750 0.000000
vt 0.656250 0.000000
vt 0.718750 0.000000
vt 0.781250 0.000000
vt 0.843750 0.000000
vt 0.906250 0.000000
vt 0.968750 0.000000
vt 0.031250 1.000000
vt 0.093750 1.000000
vt 0.156250 1.000000
vt 0.218750 1.000000
vt 0.281250 1.000000
vt 0.343750 1.000000
vt 0.406250 1.000000
vt 0.468750 1.000000
vt 0.531250 1.000000
vt 0.593750 1.000000
vt 0.656250 1.000000
vt 0.718750 1.000000
vt 0.781250 1.000000
vt 0.843750 1.000000
vt 0.906250 1.000000
vt 0.968750 1.000000
vn -0.446435 0.875500 0.184919
vn -0.688835 0.666405 0.285325
vn -0.527212 0.666405 0.527211
vn -0.341687 0.875500 0.341686
vn -0.285325 0.666405 0.688835
vn -0.184920 0.875500 0.446435
vn -0.000000 0.666405 0.745590
vn -0.000000 0.875500 0.483217
vn 0.285324 0.666405 0.688835
vn 0.184919 0.875500 0.446435
vn 0.527211 0.666405 0.527212
vn 0.341686 0.875500 0.341687
vn 0.688835 0.666405 0.285325
vn 0.446435 0.875500 0.184919
vn 0.745590 0.666405 0.000000
vn 0.483217 0.875500 0.000000
vn 0.688835 0.666405 -0.285325
vn 0.446435 0.875500 -0.184919
vn 0.527212 0.666405 -0.527211
vn 0.341686 0.875500 -0.341686
vn 0.285325 0.666405 -0.688835
vn 0.184919 0.875500 -0.446435
vn 0.000000 0.666405 -0.745590
vn 0.000000 0.875500 -0.483218
vn -0.285325 0.666405 -0.688835
vn -0.184919 0.875500 -0.446435
vn -0.527212 0.666405 -0.527212
vn -0.341686 0.875500 -0.341686
vn -0.688835 0.666405 -0.285325
vn -0.446435 0.875500 -0.184919
vn -0.745590 0.666405 -0.000000
vn -0.483218 0.875500 -0.000000
vn -0.862384 0.358740 0.357211
vn -0.660040 0.358740 0.660040
vn -0.357211 0.358740 0.862384
vn -0.000000 0.358740 0.933438
vn 0.357211 0.358740 0.862384
vn 0.660040 0.358740 0.660040
vn 0.862384 0.358740 0.357211
vn 0.933438 0.358740 0.000000
vn 0.862384 0.358740 -0.357211
vn 0.660040 0.358740 -0.660040
vn 0.357211 0.358740 -0.862384
vn 0.000000 0.358740 -0.933438
vn -0.357211 0.358740 -0.862384
vn -0.660040 0.358740 -0.660040
vn -0.862384 0.358740 -0.357211
vn -0.933438 0.358740 -0.000000
vn -0.923880 0.000000 0.382683
vn -0.707107 -0.000000 0.707106
vn -0.382684 -0.000000 0.923879
vn -0.000000 0.000000 1.000000
vn 0.382683 -0.000000 0.923880
vn 0.707106 0.000000 0.707107
vn 0.923879 0.000000 0.382684
vn 1.000000 0.000000 0.000000
vn 0.923880 -0.000000 -0.382683
vn 0.707107 -0.000000 -0.707107
vn 0.382684 -0.000000 -0.923879
vn 0.000000 -0.000000 -1.000000
vn -0.382683 0.000000 -0.923880
vn -0.707107 -0.000000 -0.707107
vn -0.923880 -0.000000 -0.382684
vn -1.000000 -0.000000 -0.000000
vn -0.862384 -0.358740 0.357211
vn -0.660040 -0.358740 0.660040
vn -0.357211 -0.358740 0.862384
vn -0.000000 -0.358740 0.933438
vn 0.357211 -0.358740 0.862384
vn 0.660040 -0.358740 0.660040
vn 0.862384 -0.358740 0.357212
vn 0.933438 -0.358740 0.000000
vn 0.862384 -0.358740 -0.357211
vn 0.660040 -0.358740 -0.660040
vn 0.357211 -0.358740 -0.862384
vn 0.000000 -0.358740 -0.933438
vn -0.357211 -0.358740 -0.862384
vn -0.660040 -0.358740 -0.660040
vn -0.862384 -0.358740 -0.357211
vn -0.933438 -0.358740 -0.000000
vn -0.688835 -0.666405 0.285325
vn -0.527212 -0.666405 0.527211
vn -0.285325 -0.666405 0.688835
vn -0.000000 -0.666405 0.745590
vn 0.285324 -0.666405 0.688835
vn 0.527211 -0.666405 0.527212
vn 0.688835 -0.666405 0.285325
vn 0.745590 -0.666405 0.000000
vn 0.688835 -0.666405 -0.285325
vn 0.527212 -0.666405 -0.527211
vn 0.285325 -0.666405 -0.688835
vn 0.000000 -0.666405 -0.745590
vn -0.285325 -0.666405 -0.688835
vn -0.527212 -0.666405 -0.527212
vn -0.688835 -0.666405 -0.285325
vn -0.745590 -0.666405 -0.000000
vn -0.446435 -0.875500 0.184919
vn -0.341687 -0.875500 0.341686
vn -0.184920 -0.875500 0.446435
vn -0.000000 -0.875500 0.483217
vn 0.184919 -0.875500 0.446435
vn 0.341686 -0.875500 0.341687
vn 0.446435 -0.875500 0.184919
vn 0.483218 -0.875500 0.000000
vn 0.446435 -0.875500 -0.184919
vn 0.341687 -0.875500 -0.341686
vn 0.184919 -0.875501 -0.446435
vn 0.000000 -0.875501 -0.483217
vn -0.184919 -0.875500 -0.446435
vn -0.341686 -0.875500 -0.341686
vn -0.446435 -0.875500 -0.184919
vn -0.483218 -0.875500 -0.000000
vn 0.000000 1.000000 -0.000000
vn 0.000000 -1.000000 -0.000000
s 1
usemtl initialShadingGroup
f 1/1/1 17/18/2 18/19/3 2/2/4
f 2/2/4 18/19/3 19/20/5 3/3/6
f 3/3/6 19/20/5 20/21/7 4/4/8
f 4/4/8 20/21/7 21/22/9 5/5/10
f 5/5/10 21/22/9 22/23/11 6/6/12
f 6/6/12 22/23/11 23/24/13 7/7/14
f 7/7/14 23/24/13 24/25/15 8/8/16
f 8/8/16 24/25/15 25/26/17 9/9/18
f 9/9/18 25/26/17 26/27/19 10/10/20
f 10/10/20 26/27/19 27/28/21 11/11/22
f 11/11/22 27/28/21 28/29/23 12/12/24
f 12/12/24 28/29/23 29/30/25 13/13/26
f 13/13/26 29/30/25 30/31/27 14/14/28
f 14/14/28 30/31/27 31/32/29 15/15/30
f 15/15/30 31/32/29 32/33/31 16/16/32
f 16/16/32 32/33/31 17/34/2 1/17/1
f 17/18/2 33/35/33 34/36/34 18/19/3
f 18/19/3 34/36/34 35/37/35 19/20/5
f 19/20/5 35/37/35 36/38/36 20/21/7
f 20/21/7 36/38/36 37/39/37 21/22/9
f 21/22/9 37/39/37 38/40/38 22/23/11
f 22/23/11 38/40/38 39/41/39 23/24/13
f 23/24/13 39/41/39 40/42/40 24/25/15
f 24/25/15 40/42/40 41/43/41 25/26/17
f 25/26/17 41/43/41 42/44/42 26/27/19
f 26/27/19 42/44/42 43/45/43 27/28/21
f 27/28/21 43/45/43 44/46/44 28/29/23
f 28/29/23 44/46/44 45/47/45 29/30/25
f 29/30/25 45/47/45 46/48/46 30/31/27
f 30/31/27 46/48/46 47/49/47 31/32/29
f 31/32/29 47/49/47 48/50/48 32/33/31
f 32/33/31 48/50/48 33/51/33 17/34/2
f 33/35/33 49/52/49 50/53/50 34/36/34
f 34/36/34 50/53/50 51/54/51 35/37/35
f 35/37/35 51/54/51 52/55/52 36/38/36
f 36/38/36 52/55/52 53/56/53 37/39/37
f 37/39/37 53/56/53 54/57/54 38/40/38
f 38/40/38 54/57/54 55/58/55 39/41/39
f 39/41/39 55/58/55 56/59/56 40/42/40
f 40/42/40 56/59/56 57/60/57 41/43/41
f 41/43/41 57/60/57 58/61/58 42/44/42
f 42/44/42 58/61/58 59/62/59 43/45/43
f 43/45/43 59/62/59 60/63/60 44/46/44
f 44/46/44 60/63/60 61/64/61 45/47/45
f 45/47/45 61/64/61 62/65/62 46/48/46
f 46/48/46 62/65/62 63/66/63 47/49/47
f 47/49/47 63/66/63 64/67/64 48/50/48
f 48/50/48 64/67/64 49/68/49 33/51/33
f 49/52/49 65/69/65 66/70/66 50/53/50
f 50/53/50 66/70/66 67/71/67 51/54/51
f 51/54/51 67/71/67 68/72/68 52/55/52
f 52/55/52 68/72/68 69/73/69 53/56/53
f 53/56/53 69/73/69 70/74/70 54/57/54
f 54/57/54 70/74/70 71/75/71 55/58/55
f 55/58/55 71/75/71 72/76/72 56/59/56
f 56/59/56 72/76/72 73/77/73 57/60/57
f 57/60/57 73/77/73 74/78/74 58/61/58
f 58/61/58 74/78/74 75/79/75 59/62/59
f 59/62/59 75/79/75 76/80/76 60/63/60
f 60/63/60 76/80/76 77/81/77 61/64/61
f 61/64/61 77/81/77 78/82/78 62/65/62
f 62/65/62 78/82/78 79/83/79 63/66/63
f 63/66/63 79/83/79 80/84/80 64/67/64
f 64/67/64 80/84/80 65/85/65 49/68/49
f 65/69/65 81/86/81 82/87/82 66/70/66
f 66/70/66 82/87/82 83/88/83 67/71/67
f 67/71/67 83/88/83 84/89/84 68/72/68
f 68/72/68 84/89/84 85/90/85 69/73/69
f 69/73/69 85/90/85 86/91/86 70/74/70
f 70/74/70 86/91/86 87/92/87 71/75/71
f 71/75/71 87/92/87 88/93/88 72/76/72
f 72/76/72 88/93/88 89/94/89 73/77/73
f 73/77/73 89/94/89 90/95/90 74/78/74
f 74/78/74 90/95/90 91/96/91 75/79/75
f 75/79/75 91/96/91 92/97/92 76/80/76
f 76/80/76 92/97/92 93/98/93 77/81/77
f 77/81/77 93/98/93 94/99/94 78/82/78
f 78/82/78 94/99/94 95/100/95 79/83/79
f 79/83/79 95/100/95 96/101/96 80/84/80
f 80/84/80 96/101/96 81/102/81 65/85/65
f 81/86/81 97/103/97 98/104/98 82/87/82
f 82/87/82 98/104/98 99/105/99 83/88/83
f 83/88/83 99/105/99 100/106/100 84/89/84
f 84/89/84 100/106/100 101/107/101 85/90/85
f 85/90/85 101/107/101 102/108/102 86/91/86
f 86/91/86 102/108/102 103/109/103 87/92/87
f 87/92/87 103/109/103 104/110/104 88/93/88
f 88/93/88 104/110/104 105/111/105 89/94/89
f 89/94/89 105/111/105 106/112/106 90/95/90
f 90/95/90 106/112/106 107/113/107 91/96/91
f 91/96/91 107/113/107 108/114/108 92/97/92
f 92/97/92 108/114/108 109/115/109 93/98/93
f 93/98/93 109/115/109 110/116/110 94/99/94
f 94/99/94 110/116/110 111/117/111 95/100/95
f 95/100/95 111/117/111 112/118/112 96/101/96
f 96/101/96 112/118/112 97/119/97 81/102/81
f 2/2/4 113/120/113 1/1/1
f 3/3/6 113/121/113 2/2/4
f 4/4/8 113/122/113 3/3/6
f 5/5/10 113/123/113 4/4/8
f 6/6/12 113/124/113 5/5/10
f 7/7/14 113/125/113 6/6/12
f 8/8/16 113/126/113 7/7/14
f 9/9/18 113/127/113 8/8/16
f 10/10/20 113/128/113 9/9/18
f 11/11/22 113/129/113 10/10/20
f 12/12/24 113/130/113 11/11/22
f 13/13/26 113/131/113 12/12/24
f 14/14/28 113/132/113 13/13/26
f 15/15/30 113/133/113 14/14/28
f 16/16/32 113/134/113 15/15/30
f 1/17/1 113/135/113 16/16/32
f 97/103/97 114/136/114 98/104/98
f 98/104/98 114/137/114 99/105/99
f 99/105/99 114/138/114 100/106/100
f 100/106/100 114/139/114 101/107/101
f 101/107/101 114/140/114 102/108/102
f 102/108/102 114/141/114 103/109/103
f 103/109/103 114/142/114 104/110/104
f 104/110/104 114/143/114 105/111/105
f 105/111/105 114/144/114 106/112/106
f 106/112/106 114/145/114 107/113/107
f 107/113/107 114/146/114 108/114/108
f 108/114/108 114/147/114 109/115/109
f 109/115/109 114/148/114 110/116/110
f 110/116/110 114/149/114 111/117/111
f 111/117/111 114/150/114 112/118/112
f 112/118/112 114/151/114 97/119/97
