# This file uses centimeters as units for non-parametric coordinates.

mtllib cylinderSubdivided.mtl
g default
v -0.500000 -60.328057 -0.866026
v -0.500000 -60.328057 0.866025
v 1.000000 -60.328057 0.000000
v -0.500000 -54.295250 -0.866026
v -0.500000 -54.295250 0.866025
v 1.000000 -54.295250 0.000000
v -0.500000 -48.262443 -0.866026
v -0.500000 -48.262443 0.866025
v 1.000000 -48.262443 0.000000
v -0.500000 -42.229636 -0.866026
v -0.500000 -42.229636 0.866025
v 1.000000 -42.229636 0.000000
v -0.500000 -36.196828 -0.866026
v -0.500000 -36.196828 0.866025
v 1.000000 -36.196828 0.000000
v -0.500000 -30.164023 -0.866026
v -0.500000 -30.164023 0.866025
v 1.000000 -30.164023 0.000000
v -0.500000 -24.131218 -0.866026
v -0.500000 -24.131218 0.866025
v 1.000000 -24.131218 0.000000
v -0.500000 -18.098412 -0.866026
v -0.500000 -18.098412 0.866025
v 1.000000 -18.098412 0.000000
v -0.500000 -12.065607 -0.866026
v -0.500000 -12.065607 0.866025
v 1.000000 -12.065607 0.000000
v -0.500000 -6.032801 -0.866026
v -0.500000 -6.032801 0.866025
v 1.000000 -6.032801 0.000000
v -0.500000 0.000004 -0.866026
v -0.500000 0.000004 0.866025
v 1.000000 0.000004 0.000000
v -0.500000 6.032810 -0.866026
v -0.500000 6.032810 0.866025
v 1.000000 6.032810 0.000000
v -0.500000 12.065616 -0.866026
v -0.500000 12.065616 0.866025
v 1.000000 12.065616 0.000000
v -0.500000 18.098421 -0.866026
v -0.500000 18.098421 0.866025
v 1.000000 18.098421 0.000000
v -0.500000 24.131227 -0.866026
v -0.500000 24.131227 0.866025
v 1.000000 24.131227 0.000000
v -0.500000 30.164032 -0.866026
v -0.500000 30.164032 0.866025
v 1.000000 30.164032 0.000000
v -0.500000 36.196839 -0.866026
v -0.500000 36.196839 0.866025
v 1.000000 36.196839 0.000000
v -0.500000 42.229646 -0.866026
v -0.500000 42.229646 0.866025
v 1.000000 42.229646 0.000000
v -0.500000 48.262454 -0.866026
v -0.500000 48.262454 0.866025
v 1.000000 48.262454 0.000000
v -0.500000 54.295261 -0.866026
v -0.500000 54.295261 0.866025
v 1.000000 54.295261 0.000000
v -0.500000 60.328057 -0.866026
v -0.500000 60.328057 0.866025
v 1.000000 60.328057 0.000000
vt 0.375000 0.312500
vt 0.458333 0.312500
vt 0.541667 0.312500
vt 0.625000 0.312500
vt 0.375000 0.331297
vt 0.458333 0.331297
vt 0.541667 0.331297
vt 0.625000 0.331297
vt 0.375000 0.350094
vt 0.458333 0.350094
vt 0.541667 0.350094
vt 0.625000 0.350094
vt 0.375000 0.368891
vt 0.458333 0.368891
vt 0.541667 0.368891
vt 0.625000 0.368891
vt 0.375000 0.387688
vt 0.458333 0.387688
vt 0.541667 0.387688
vt 0.625000 0.387688
vt 0.375000 0.406485
vt 0.458333 0.406485
vt 0.541667 0.406485
vt 0.625000 0.406485
vt 0.375000 0.425282
vt 0.458333 0.425282
vt 0.541667 0.425282
vt 0.625000 0.425282
vt 0.375000 0.444079
vt 0.458333 0.444079
vt 0.541667 0.444079
vt 0.625000 0.444079
vt 0.375000 0.462876
vt 0.458333 0.462876
vt 0.541667 0.462876
vt 0.625000 0.462876
vt 0.375000 0.481673
vt 0.458333 0.481673
vt 0.541667 0.481673
vt 0.625000 0.481673
vt 0.375000 0.500470
vt 0.458333 0.500470
vt 0.541667 0.500470
vt 0.625000 0.500470
vt 0.375000 0.519267
vt 0.458333 0.519267
vt 0.541667 0.519267
vt 0.625000 0.519267
vt 0.375000 0.538064
vt 0.458333 0.538064
vt 0.541667 0.538064
vt 0.625000 0.538064
vt 0.375000 0.556861
vt 0.458333 0.556861
vt 0.541667 0.556861
vt 0.625000 0.556861
vt 0.375000 0.575658
vt 0.458333 0.575658
vt 0.541667 0.575658
vt 0.625000 0.575658
vt 0.375000 0.594455
vt 0.458333 0.594455
vt 0.541667 0.594455
vt 0.625000 0.594455
vt 0.375000 0.613252
vt 0.458333 0.613252
vt 0.541667 0.613252
vt 0.625000 0.613252
vt 0.375000 0.632049
vt 0.458333 0.632049
vt 0.541667 0.632049
vt 0.625000 0.632049
vt 0.375000 0.650846
vt 0.458333 0.650846
vt 0.541667 0.650846
vt 0.625000 0.650846
vt 0.375000 0.669643
vt 0.458333 0.669643
vt 0.541667 0.669643
vt 0.625000 0.669643
vt 0.375000 0.688440
vt 0.458333 0.688440
vt 0.541667 0.688440
vt 0.625000 0.688440
vt 0.421875 0.708434
vt 0.421875 0.979066
vt 0.656250 0.843750
vn -0.500000 0.000000 -0.866026
vn -0.500000 0.000000 0.866026
vn -0.500000 0.000000 0.866025
vn -0.500000 0.000000 -0.866026
vn 1.000000 0.000000 0.000000
vn 1.000000 0.000000 0.000000
vn -0.500000 0.000000 0.866025
vn -0.500000 0.000000 -0.866025
vn 1.000000 0.000000 0.000000
vn -0.500000 0.000000 0.866025
vn -0.500000 0.000000 -0.866026
vn 1.000000 0.000000 0.000000
vn -0.500000 0.000000 0.866025
vn -0.500000 0.000000 -0.866026
vn 1.000000 0.000000 0.000000
vn -0.500000 0.000000 0.866025
vn -0.500000 0.000000 -0.866025
vn 1.000000 0.000000 0.000000
vn -0.500000 0.000000 0.866025
vn -0.500000 0.000000 -0.866026
vn 1.000000 0.000000 -0.000000
vn -0.500000 0.000000 0.866025
vn -0.500000 0.000000 -0.866026
vn 1.000000 0.000000 -0.000000
vn -0.500000 0.000000 0.866025
vn -0.500000 0.000000 -0.866025
vn 1.000000 0.000000 0.000000
vn -0.500000 0.000000 0.866026
vn -0.500000 0.000000 -0.866026
vn 1.000000 0.000000 0.000000
vn -0.500000 0.000000 0.866026
vn -0.500000 0.000000 -0.866026
vn 1.000000 0.000000 0.000000
vn -0.500000 0.000000 0.866026
vn -0.500000 0.000000 -0.866025
vn 1.000000 0.000000 0.000000
vn -0.500000 0.000000 0.866025
vn -0.500000 0.000000 -0.866025
vn 1.000000 0.000000 0.000000
vn -0.500000 0.000000 0.866025
vn -0.500000 0.000000 -0.866025
vn 1.000000 0.000000 0.000000
vn -0.500000 0.000000 0.866025
vn -0.500000 0.000000 -0.866026
vn 1.000000 0.000000 -0.000000
vn -0.500000 0.000000 0.866025
vn -0.500000 0.000000 -0.866025
vn 1.000000 0.000000 -0.000000
vn -0.500000 0.000000 0.866025
vn -0.500000 0.000000 -0.866026
vn 1.000000 0.000000 0.000000
vn -0.500000 0.000000 0.866025
vn -0.500000 0.000000 -0.866026
vn 1.000000 0.000000 0.000000
vn -0.500000 0.000000 0.866025
vn -0.500000 0.000000 -0.866026
vn 1.000000 0.000000 0.000000
vn -0.500000 0.000000 0.866026
vn -0.500000 0.000000 -0.866026
vn 1.000000 0.000000 -0.000000
vn -0.498291 0.082597 0.863066
vn -0.498292 0.082597 -0.863066
vn 0.996583 0.082597 0.000000
s 1
g pCylinder1
usemtl initialShadingGroup
f 1/1/1 2/2/2 5/6/3 4/5/4
f 2/2/2 3/3/5 6/7/6 5/6/3
f 3/3/5 1/4/1 4/8/4 6/7/6
f 4/5/4 5/6/3 8/10/7 7/9/8
f 5/6/3 6/7/6 9/11/9 8/10/7
f 6/7/6 4/8/4 7/12/8 9/11/9
f 7/9/8 8/10/7 11/14/10 10/13/11
f 8/10/7 9/11/9 12/15/12 11/14/10
f 9/11/9 7/12/8 10/16/11 12/15/12
f 10/13/11 11/14/10 14/18/13 13/17/14
f 11/14/10 12/15/12 15/19/15 14/18/13
f 12/15/12 10/16/11 13/20/14 15/19/15
f 13/17/14 14/18/13 17/22/16 16/21/17
f 14/18/13 15/19/15 18/23/18 17/22/16
f 15/19/15 13/20/14 16/24/17 18/23/18
f 16/21/17 17/22/16 20/26/19 19/25/20
f 17/22/16 18/23/18 21/27/21 20/26/19
f 18/23/18 16/24/17 19/28/20 21/27/21
f 19/25/20 20/26/19 23/30/22 22/29/23
f 20/26/19 21/27/21 24/31/24 23/30/22
f 21/27/21 19/28/20 22/32/23 24/31/24
f 22/29/23 23/30/22 26/34/25 25/33/26
f 23/30/22 24/31/24 27/35/27 26/34/25
f 24/31/24 22/32/23 25/36/26 27/35/27
f 25/33/26 26/34/25 29/38/28 28/37/29
f 26/34/25 27/35/27 30/39/30 29/38/28
f 27/35/27 25/36/26 28/40/29 30/39/30
f 28/37/29 29/38/28 32/42/31 31/41/32
f 29/38/28 30/39/30 33/43/33 32/42/31
f 30/39/30 28/40/29 31/44/32 33/43/33
f 31/41/32 32/42/31 35/46/34 34/45/35
f 32/42/31 33/43/33 36/47/36 35/46/34
f 33/43/33 31/44/32 34/48/35 36/47/36
f 34/45/35 35/46/34 38/50/37 37/49/38
f 35/46/34 36/47/36 39/51/39 38/50/37
f 36/47/36 34/48/35 37/52/38 39/51/39
f 37/49/38 38/50/37 41/54/40 40/53/41
f 38/50/37 39/51/39 42/55/42 41/54/40
f 39/51/39 37/52/38 40/56/41 42/55/42
f 40/53/41 41/54/40 44/58/43 43/57/44
f 41/54/40 42/55/42 45/59/45 44/58/43
f 42/55/42 40/56/41 43/60/44 45/59/45
f 43/57/44 44/58/43 47/62/46 46/61/47
f 44/58/43 45/59/45 48/63/48 47/62/46
f 45/59/45 43/60/44 46/64/47 48/63/48
f 46/61/47 47/62/46 50/66/49 49/65/50
f 47/62/46 48/63/48 51/67/51 50/66/49
f 48/63/48 46/64/47 49/68/50 51/67/51
f 49/65/50 50/66/49 53/70/52 52/69/53
f 50/66/49 51/67/51 54/71/54 53/70/52
f 51/67/51 49/68/50 52/72/53 54/71/54
f 52/69/53 53/70/52 56/74/55 55/73/56
f 53/70/52 54/71/54 57/75/57 56/74/55
f 54/71/54 52/72/53 55/76/56 57/75/57
f 55/73/56 56/74/55 59/78/58 58/77/59
f 56/74/55 57/75/57 60/79/60 59/78/58
f 57/75/57 55/76/56 58/80/59 60/79/60
f 58/77/59 59/78/58 62/82/61 61/81/62
f 59/78/58 60/79/60 63/83/63 62/82/61
f 60/79/60 58/80/59 61/84/62 63/83/63
f 61/86/62 62/85/61 63/87/63
